{
    "asset" : {
        "generator" : "Khronos Blender glTF 2.0 I/O",
        "version" : "2.0"
    },
    "scene" : 0,
    "scenes" : [
        {
            "name" : "Scene",
            "nodes" : [
                0
            ]
        }
    ],
    "nodes" : [
        {
            "mesh" : 0,
            "name" : "BeijingLow",
            "rotation" : [
                -0.7071068286895752,
                0,
                0,
                0.7071067094802856
            ],
            "scale" : [
                0.02539999969303608,
                0.02539999969303608,
                0.02539999969303608
            ],
            "translation" : [
                -2.332432985305786,
                0,
                2.332235097885132
            ]
        }
    ],
    "meshes" : [
        {
            "name" : "Mesh",
            "primitives" : [
                {
                    "attributes" : {
                        "POSITION" : 0,
                        "NORMAL" : 1
                    },
                    "indices" : 2
                }
            ]
        }
    ],
    "accessors" : [
        {
            "bufferView" : 0,
            "componentType" : 5126,
            "count" : 39051,
            "max" : [
                183.65663146972656,
                183.6420135498047,
                42.311946868896484
            ],
            "min" : [
                -0.0004901877255178988,
                -0.0014330946141853929,
                0
            ],
            "type" : "VEC3"
        },
        {
            "bufferView" : 1,
            "componentType" : 5126,
            "count" : 39051,
            "type" : "VEC3"
        },
        {
            "bufferView" : 2,
            "componentType" : 5123,
            "count" : 267450,
            "type" : "SCALAR"
        }
    ],
    "bufferViews" : [
        {
            "buffer" : 0,
            "byteLength" : 468612,
            "byteOffset" : 0
        },
        {
            "buffer" : 0,
            "byteLength" : 468612,
            "byteOffset" : 468612
        },
        {
            "buffer" : 0,
            "byteLength" : 534900,
            "byteOffset" : 937224
        }
    ],
    "buffers" : [
        {
            "byteLength" : 1472124,
            "uri" : "data:application/octet-stream;base64,"
        }
    ]
}
